<svg height="492.576pt" viewBox="0 0 492.576 492.576" width="492.576pt" xmlns="http://www.w3.org/2000/svg" xmlns:xlink="http://www.w3.org/1999/xlink"><linearGradient id="a" gradientUnits="userSpaceOnUse" x1="246.288" x2="246.288" y1="492.5768" y2="-.0008"><stop offset="0" stop-color="#9f2fff"/><stop offset="1" stop-color="#0bb1d3"/></linearGradient><path d="m231.617188 159.503906-2.65625-15.785156c5.679687-.941406 11.503906-1.429688 17.328124-1.429688v16c-4.9375 0-9.875.40625-14.671874 1.214844zm-73.328126 86.785156c0-37.242187 23.574219-70.59375 58.664063-83l-5.335937-15.082031c-41.464844 14.65625-69.328126 54.074219-69.328126 98.082031zm-158.289062 0 100.328125-38.585937-35.167969-36.429687 50.632813-.90625-43.65625-98.222657 98.222656 43.648438.90625-50.617188 36.429687 35.152344 38.59375-100.328125 38.589844 100.328125 36.433594-35.152344.902344 50.617188 98.226562-43.648438-43.65625 98.222657 50.628906.90625-35.167968 36.429687 100.328125 38.585937-100.328125 38.582032 35.167968 36.433594-50.628906.902343 43.65625 98.226563-98.226562-43.648438-.902344 50.613282-36.433594-35.152344-38.589844 100.328125-38.59375-100.328125-36.429687 35.152344-.90625-50.613282-98.222656 43.648438 43.65625-98.226563-50.632813-.902343 35.167969-36.433594zm122.855469 60.046876.769531-1.71875c-1.992188-4.167969-3.769531-8.449219-5.335938-12.832032l-1.738281-.664062-14.34375 14.847656zm3.433593-60.046876c0 66.167969 53.832032 120 120 120 66.167969 0 120-53.832031 120-120 0-66.167968-53.832031-120-120-120-66.167968 0-120 53.832032-120 120zm43.757813 113.125-.007813-.574218c-14.269531-9.695313-26.605468-22.03125-36.304687-36.304688l-.574219-.007812-29.511718 66.402344zm31.417969 16.625-.671875-1.742187c-4.386719-1.5625-8.65625-3.34375-12.824219-5.335937l-1.730469.765624.371094 20.640626zm70.902344 4.144532-.414063-.398438c-8.320313 1.589844-16.890625 2.503906-25.664063 2.503906-8.777343 0-17.34375-.914062-25.664062-2.503906l-.417969.398438 26.082031 67.816406zm33.96875-10.457032-1.726563-.765624c-4.167969 1.992187-8.441406 3.765624-12.824219 5.335937l-.671875 1.742187 14.855469 14.335938zm53.078124-47.199218-.574218.007812c-9.695313 14.273438-22.03125 26.609375-36.304688 36.304688l-.007812.574218 66.402344 29.515626zm16.617188-31.414063-1.734375.664063c-1.570313 4.390625-3.34375 8.664062-5.335937 12.832031l.765624 1.71875 20.640626-.367187zm4.152344-70.914062-.398438.417969c1.589844 8.328124 2.503906 16.886718 2.503906 25.671874 0 8.78125-.914062 17.34375-2.503906 25.671876l.398438.414062 67.816406-26.085938zm-10.464844-33.960938-.765625 1.722657c1.992187 4.167968 3.765625 8.445312 5.335937 12.832031l1.734376.664062 14.335937-14.855469zm-47.191406-53.078125.007812.574219c14.273438 9.699219 26.609375 22.035156 36.304688 36.304687l.574218.007813 29.515626-66.398437zm-31.414063-16.625.671875 1.746094c4.382813 1.558594 8.65625 3.34375 12.824219 5.335938l1.726563-.769532-.367188-20.640625zm-70.90625-4.144531.417969.402344c8.320312-1.59375 16.886719-2.503907 25.664062-2.503907 8.773438 0 17.34375.910157 25.664063 2.503907l.414063-.402344-26.078126-67.816406zm-33.96875 10.457031 1.730469.769532c4.167969-1.992188 8.4375-3.769532 12.824219-5.335938l.671875-1.746094-14.855469-14.335937zm-53.078125 47.199219.574219-.007813c9.699219-14.269531 22.035156-26.605468 36.304687-36.304687l.007813-.574219-66.398437-29.511718zm-16.617187 31.417969 1.738281-.664063c1.566406-4.394531 3.34375-8.664062 5.335938-12.832031l-.769532-1.722656-20.640625.371094zm-4.152344 18.734375-67.816406 26.089843 67.824219 26.085938.402343-.414062c-1.601562-8.328126-2.511719-16.890626-2.511719-25.671876 0-8.785156.910157-17.34375 2.503907-25.671874zm52.503906-191.320313-14.773437 6.128906 6.117187 14.792969 14.785157-6.128906zm-129.886719 121.242188-6.128906 14.78125 14.785156 6.128906 6.128907-14.785156zm0 192.335937 14.785157-6.128906-6.128907-14.785156-14.785156 6.128906zm129.886719 121.238281 6.121094-14.792968-14.785156-6.125-6.117188 14.789062zm162.785157 0 14.785156-6.128906-6.121094-14.789062-14.785156 6.125zm129.886718-121.238281 6.128906-14.785156-14.785156-6.128906-6.125 14.785156zm0-192.335937-14.78125 6.125 6.125 14.785156 14.785156-6.128906zm-129.886718-121.242188-6.121094 14.792969 14.785156 6.128906 6.121094-14.792969zm0 0" fill="url(#a)"/></svg>